PathFileType	4	(X/Y/Z)	C:/Users/opensim2020/Desktop/walking_exp_matlab/subject03_walking09_straight_01.trc	
DataRate	CameraRate	NumFrames	NumMarkers	Units	OrigDataRate	OrigDataStartFrame	OrigNumFrames	
100.00	100.00	4	47	mm	100.00	1056	493	
Frame#	Time	LFHD			RFHD			LBHD			RBHD			C7			T10			CLAV			STRN			RBAK			LSHO			LUPA			LELB			LFRM			LWRA			LWRB			LFIN			RSHO			RUPA			RELB			RFRM			RWRA			RWRB			RFIN			LASI			RASI			LPSI			RPSI			LTHI			LKNE			LTIB			LANK			LHEE			LTOE			RTHI			RKNE			RTIB			RANK			RHEE			RTOE			*39			*40			*41			*42			*43			*44			*45			*46			
		X1	Y1	Z1	X2	Y2	Z2	X3	Y3	Z3	X4	Y4	Z4	X5	Y5	Z5	X6	Y6	Z6	X7	Y7	Z7	X8	Y8	Z8	X9	Y9	Z9	X10	Y10	Z10	X11	Y11	Z11	X12	Y12	Z12	X13	Y13	Z13	X14	Y14	Z14	X15	Y15	Z15	X16	Y16	Z16	X17	Y17	Z17	X18	Y18	Z18	X19	Y19	Z19	X20	Y20	Z20	X21	Y21	Z21	X22	Y22	Z22	X23	Y23	Z23	X24	Y24	Z24	X25	Y25	Z25	X26	Y26	Z26	X27	Y27	Z27	X28	Y28	Z28	X29	Y29	Z29	X30	Y30	Z30	X31	Y31	Z31	X32	Y32	Z32	X33	Y33	Z33	X34	Y34	Z34	X35	Y35	Z35	X36	Y36	Z36	X37	Y37	Z37	X38	Y38	Z38	X39	Y39	Z39	X40	Y40	Z40	X41	Y41	Z41	X42	Y42	Z42	X43	Y43	Z43	X44	Y44	Z44	X45	Y45	Z45	X46	Y46	Z46	X47	Y47	Z47	

432	4.310	-1104.14270	1031.33362	1619.22205	-974.59894	1002.60754	1624.67993	-1127.17358	904.21863	1579.63904	-998.75604	881.18640	1584.60254	-1071.28857	857.97833	1418.03992	-1069.86877	828.63165	1103.56580	-1055.21008	979.26910	1342.37000	-1055.45410	1024.43335	1177.94031	-980.69043	795.99243	1241.17542	-1213.72327	954.10760	1378.09448	-1289.80933	988.62006	1188.51489	-1303.17590	1027.05981	1072.40442	-1294.56677	1089.82239	959.01642	-1258.40198	1138.56506	853.14783	-1312.28955	1125.33557	851.93530	-1298.98328	1167.40796	780.52924	-901.26801	915.71899	1364.31079	-828.26599	921.49707	1141.35486	-812.13275	944.09882	1031.70581	-807.49731	973.91132	898.25769	-838.79425	1018.30902	807.65375	-798.87274	983.00226	798.60150	-804.04926	1016.65753	732.93207	-1173.45984	1002.32709	939.11652	-934.22083	987.65094	942.61108	-1132.28394	836.31891	966.64191	-983.33936	829.15051	969.82635	-1203.72913	926.62042	638.89093	-1160.63452	912.64508	462.31131	-1159.10608	845.48798	277.92505	-1113.05798	808.97302	71.09740	-1077.60889	766.52454	39.91718	-1087.64929	960.10797	29.09053	-881.68793	982.46643	649.57446	-908.99152	1046.39746	480.05203	-901.42175	998.68463	295.06958	-939.64587	967.93823	79.45217	-994.76678	926.94476	44.67706	-940.61230	1103.10193	41.26976	-1072.07947	942.20654	1682.28748																					 
433	4.320	-1103.39771	1036.03418	1619.11157	-973.82196	1007.06537	1624.26782	-1126.61353	908.96185	1579.32996	-998.15607	885.72919	1584.04932	-1071.02136	862.80420	1417.65894	-1069.54932	833.47406	1103.19409	-1054.79675	984.03094	1341.97705	-1055.25989	1029.29395	1177.52734	-980.70642	800.71667	1240.72034	-1213.26062	959.10529	1377.88000	-1289.53857	994.11395	1188.57886	-1302.90723	1033.11475	1072.69678	-1293.91284	1096.97302	960.07007	-1257.13586	1146.79028	854.88605	-1311.13330	1133.69202	853.36652	-1297.36377	1176.71802	782.59344	-900.95911	920.29791	1363.74023	-828.10175	925.63074	1140.76465	-811.86823	948.03107	1031.05774	-807.11578	977.63220	897.58594	-838.18530	1021.96118	806.90637	-798.54120	986.60571	797.88428	-803.61029	1020.03656	732.18317	-1173.48279	1006.53870	938.66748	-934.20148	992.51733	942.13800	-1131.86633	840.98999	966.57007	-982.95471	833.97803	969.48834	-1203.50513	929.82062	638.78125	-1160.67725	914.88483	462.22498	-1159.22668	846.63605	278.18814	-1113.10083	809.07001	71.42525	-1077.58704	766.55756	40.38878	-1087.75745	960.17700	29.12282	-881.49048	987.73718	649.45374	-909.49670	1053.48303	480.44562	-901.61774	1011.34381	294.46375	-939.49878	987.81696	77.82822	-994.56122	947.36914	42.57439	-941.26636	1123.73560	41.46395	-1071.29639	946.76422	1681.90259																					 
434	4.330	-1102.58118	1040.75037	1618.90149	-973.08795	1011.64624	1623.82178	-1125.98706	913.72400	1578.95837	-997.59045	890.36200	1583.48547	-1070.61096	867.63171	1417.19153	-1069.14551	838.27637	1102.82153	-1054.37390	988.88251	1341.57043	-1055.04126	1034.16235	1177.10999	-980.65961	805.48761	1240.19519	-1212.89063	964.09161	1377.75134	-1289.31323	999.59601	1188.59912	-1302.53430	1038.93848	1072.89172	-1293.06067	1103.88818	960.99219	-1255.81567	1154.66614	856.42444	-1309.61255	1141.62219	854.49634	-1295.62988	1185.67297	784.57928	-900.60614	924.83521	1363.14856	-827.92273	929.79681	1140.15051	-811.61554	951.99457	1030.42908	-806.73840	981.35199	896.93561	-837.64465	1025.67957	806.15460	-798.02509	990.00690	797.14435	-803.01984	1023.35864	731.26666	-1173.22876	1010.92084	938.32458	-934.38049	997.27966	941.66028	-1131.44885	845.46674	966.41913	-982.57184	838.84119	969.07587	-1203.48865	933.03241	638.69159	-1160.72559	917.26880	462.21423	-1159.28967	847.87561	278.44958	-1113.13025	809.19446	71.74470	-1077.64612	766.57477	40.87490	-1087.85071	960.18890	29.01918	-881.57928	993.92621	649.31274	-910.03058	1060.35815	480.72739	-901.72919	1023.81793	293.97876	-939.22974	1007.25525	76.62855	-994.28333	967.46191	40.96679	-941.64417	1144.10120	41.84958	-1070.44751	951.28107	1681.51843																					 
435	4.340	-1101.71643	1045.44666	1618.68677	-972.21338	1016.16980	1623.36292	-1125.33008	918.53156	1578.52588	-996.95984	894.98163	1582.83447	-1070.20496	872.50397	1416.78210	-1068.74414	843.11157	1102.43884	-1053.91040	993.73846	1341.14478	-1054.78784	1039.02307	1176.63721	-980.49982	810.28003	1239.68298	-1212.43127	969.08582	1377.54175	-1288.89026	1005.00348	1188.55664	-1302.14783	1044.63000	1073.01929	-1292.19019	1110.53052	961.78021	-1254.35376	1162.32361	858.02313	-1308.25916	1149.35254	855.63361	-1293.74316	1194.23523	786.31775	-900.20526	929.51721	1362.55457	-827.71405	934.00854	1139.52710	-811.40375	955.88507	1029.72644	-806.40240	985.11005	896.23590	-837.16101	1029.37793	805.39777	-797.85919	993.69586	796.44653	-802.66803	1026.76318	730.46680	-1173.42029	1015.38336	938.00323	-934.14459	1002.32721	941.17212	-1131.02527	849.97144	966.10052	-982.12482	843.65295	968.61200	-1203.39905	936.37988	638.57941	-1160.82043	919.68372	462.15002	-1159.23633	849.19684	278.69064	-1113.07593	809.36554	72.20661	-1077.56958	766.72131	41.33707	-1087.92273	960.26672	28.99666	-881.47345	999.87714	649.08167	-910.43915	1067.06824	480.93384	-901.79803	1036.02563	293.59464	-938.96185	1026.14392	75.73156	-994.05389	987.21271	39.76590	-941.81622	1164.05188	42.81580	-1069.51111	955.90845	1680.96301																					 
